<mxfile host="app.diagrams.net" modified="2022-05-11T14:28:41.602Z" agent="5.0 (Windows NT 10.0; Win64; x64) AppleWebKit/537.36 (KHTML, like Gecko) Chrome/101.0.4951.64 Safari/537.36" etag="tTT9DGjA-m2fVXtADa6c" version="17.5.0" type="github">
  <diagram id="Q9ntgcNDDRvpJWjVEun0" name="Page-1">
    <mxGraphModel dx="1038" dy="547" grid="1" gridSize="10" guides="1" tooltips="1" connect="1" arrows="1" fold="1" page="1" pageScale="1" pageWidth="827" pageHeight="1169" math="0" shadow="0">
      <root>
        <mxCell id="0" />
        <mxCell id="1" parent="0" />
        <mxCell id="gMOgoBxVHWDVu3JlSCFE-1" value="" style="rounded=0;whiteSpace=wrap;html=1;" vertex="1" parent="1">
          <mxGeometry x="310" y="150" width="120" height="50" as="geometry" />
        </mxCell>
        <mxCell id="gMOgoBxVHWDVu3JlSCFE-4" value="&lt;h3&gt;&lt;font style=&quot;font-size: 15px&quot;&gt;论文&lt;/font&gt;&lt;/h3&gt;" style="text;html=1;strokeColor=none;fillColor=none;align=center;verticalAlign=middle;whiteSpace=wrap;rounded=0;" vertex="1" parent="1">
          <mxGeometry x="340" y="160" width="60" height="30" as="geometry" />
        </mxCell>
        <mxCell id="gMOgoBxVHWDVu3JlSCFE-6" value="" style="rounded=0;whiteSpace=wrap;html=1;" vertex="1" parent="1">
          <mxGeometry x="70" y="260" width="120" height="50" as="geometry" />
        </mxCell>
        <mxCell id="gMOgoBxVHWDVu3JlSCFE-7" value="" style="rounded=0;whiteSpace=wrap;html=1;fillColor=#B3B3B3;fontColor=#333333;strokeColor=#CCCCCC;" vertex="1" parent="1">
          <mxGeometry x="120" y="300" width="80" height="20" as="geometry" />
        </mxCell>
        <mxCell id="gMOgoBxVHWDVu3JlSCFE-8" value="&lt;h5&gt;&lt;font style=&quot;font-size: 12px&quot;&gt;绪论&lt;/font&gt;&lt;/h5&gt;" style="text;html=1;strokeColor=none;fillColor=none;align=center;verticalAlign=middle;whiteSpace=wrap;rounded=0;" vertex="1" parent="1">
          <mxGeometry x="100" y="270" width="60" height="30" as="geometry" />
        </mxCell>
        <mxCell id="gMOgoBxVHWDVu3JlSCFE-9" value="" style="rounded=0;whiteSpace=wrap;html=1;" vertex="1" parent="1">
          <mxGeometry x="230" y="260" width="120" height="50" as="geometry" />
        </mxCell>
        <mxCell id="gMOgoBxVHWDVu3JlSCFE-10" value="" style="rounded=0;whiteSpace=wrap;html=1;fillColor=#B3B3B3;fontColor=#333333;strokeColor=#CCCCCC;" vertex="1" parent="1">
          <mxGeometry x="280" y="300" width="80" height="20" as="geometry" />
        </mxCell>
        <mxCell id="gMOgoBxVHWDVu3JlSCFE-11" value="&lt;h5&gt;&lt;font style=&quot;font-size: 12px&quot;&gt;MIMO无线通信系统&lt;/font&gt;&lt;/h5&gt;" style="text;html=1;strokeColor=none;fillColor=none;align=center;verticalAlign=middle;whiteSpace=wrap;rounded=0;" vertex="1" parent="1">
          <mxGeometry x="220" y="270" width="140" height="30" as="geometry" />
        </mxCell>
        <mxCell id="gMOgoBxVHWDVu3JlSCFE-12" value="" style="rounded=0;whiteSpace=wrap;html=1;" vertex="1" parent="1">
          <mxGeometry x="390" y="260" width="120" height="50" as="geometry" />
        </mxCell>
        <mxCell id="gMOgoBxVHWDVu3JlSCFE-13" value="" style="rounded=0;whiteSpace=wrap;html=1;fillColor=#B3B3B3;fontColor=#333333;strokeColor=#CCCCCC;" vertex="1" parent="1">
          <mxGeometry x="440" y="300" width="80" height="20" as="geometry" />
        </mxCell>
        <mxCell id="gMOgoBxVHWDVu3JlSCFE-14" value="&lt;h6&gt;&lt;font style=&quot;font-size: 12px&quot;&gt;MIMO系统中的功率分配算法&lt;/font&gt;&lt;/h6&gt;" style="text;html=1;strokeColor=none;fillColor=none;align=center;verticalAlign=middle;whiteSpace=wrap;rounded=0;" vertex="1" parent="1">
          <mxGeometry x="405" y="270" width="90" height="30" as="geometry" />
        </mxCell>
        <mxCell id="gMOgoBxVHWDVu3JlSCFE-15" value="" style="rounded=0;whiteSpace=wrap;html=1;" vertex="1" parent="1">
          <mxGeometry x="550" y="260" width="120" height="50" as="geometry" />
        </mxCell>
        <mxCell id="gMOgoBxVHWDVu3JlSCFE-16" value="" style="rounded=0;whiteSpace=wrap;html=1;fillColor=#B3B3B3;fontColor=#333333;strokeColor=#CCCCCC;" vertex="1" parent="1">
          <mxGeometry x="600" y="300" width="80" height="20" as="geometry" />
        </mxCell>
        <mxCell id="gMOgoBxVHWDVu3JlSCFE-17" value="&lt;h3&gt;&lt;font style=&quot;font-size: 12px&quot;&gt;改进型功率分配算法&lt;/font&gt;&lt;/h3&gt;" style="text;html=1;strokeColor=none;fillColor=none;align=center;verticalAlign=middle;whiteSpace=wrap;rounded=0;" vertex="1" parent="1">
          <mxGeometry x="555" y="270" width="110" height="30" as="geometry" />
        </mxCell>
        <mxCell id="gMOgoBxVHWDVu3JlSCFE-18" value="" style="endArrow=none;html=1;rounded=0;fontSize=15;" edge="1" parent="1">
          <mxGeometry width="50" height="50" relative="1" as="geometry">
            <mxPoint x="120" y="230" as="sourcePoint" />
            <mxPoint x="610" y="230" as="targetPoint" />
          </mxGeometry>
        </mxCell>
        <mxCell id="gMOgoBxVHWDVu3JlSCFE-19" value="" style="endArrow=none;html=1;rounded=0;fontSize=15;" edge="1" parent="1">
          <mxGeometry width="50" height="50" relative="1" as="geometry">
            <mxPoint x="119.99999999999997" y="260" as="sourcePoint" />
            <mxPoint x="120.28999999999999" y="230" as="targetPoint" />
          </mxGeometry>
        </mxCell>
        <mxCell id="gMOgoBxVHWDVu3JlSCFE-20" value="" style="endArrow=none;html=1;rounded=0;fontSize=15;" edge="1" parent="1">
          <mxGeometry width="50" height="50" relative="1" as="geometry">
            <mxPoint x="289.83" y="260" as="sourcePoint" />
            <mxPoint x="290.11999999999995" y="230" as="targetPoint" />
          </mxGeometry>
        </mxCell>
        <mxCell id="gMOgoBxVHWDVu3JlSCFE-21" value="" style="endArrow=none;html=1;rounded=0;fontSize=15;" edge="1" parent="1">
          <mxGeometry width="50" height="50" relative="1" as="geometry">
            <mxPoint x="449.71" y="260" as="sourcePoint" />
            <mxPoint x="449.99999999999994" y="230" as="targetPoint" />
          </mxGeometry>
        </mxCell>
        <mxCell id="gMOgoBxVHWDVu3JlSCFE-22" value="" style="endArrow=none;html=1;rounded=0;fontSize=15;" edge="1" parent="1">
          <mxGeometry width="50" height="50" relative="1" as="geometry">
            <mxPoint x="609.83" y="260" as="sourcePoint" />
            <mxPoint x="610.12" y="230" as="targetPoint" />
          </mxGeometry>
        </mxCell>
        <mxCell id="gMOgoBxVHWDVu3JlSCFE-23" value="" style="endArrow=none;html=1;rounded=0;fontSize=15;entryX=0.5;entryY=1;entryDx=0;entryDy=0;" edge="1" parent="1" target="gMOgoBxVHWDVu3JlSCFE-1">
          <mxGeometry width="50" height="50" relative="1" as="geometry">
            <mxPoint x="369.76" y="230" as="sourcePoint" />
            <mxPoint x="370" y="210" as="targetPoint" />
          </mxGeometry>
        </mxCell>
        <mxCell id="gMOgoBxVHWDVu3JlSCFE-24" value="&lt;pre&gt;&lt;font style=&quot;font-size: 11px&quot;&gt;第1章&lt;/font&gt;&lt;/pre&gt;" style="text;html=1;strokeColor=none;fillColor=none;align=center;verticalAlign=middle;whiteSpace=wrap;rounded=0;fontSize=13;" vertex="1" parent="1">
          <mxGeometry x="130" y="295" width="60" height="30" as="geometry" />
        </mxCell>
        <mxCell id="gMOgoBxVHWDVu3JlSCFE-25" value="&lt;pre&gt;&lt;font style=&quot;font-size: 11px&quot;&gt;第2章&lt;/font&gt;&lt;/pre&gt;" style="text;html=1;strokeColor=none;fillColor=none;align=center;verticalAlign=middle;whiteSpace=wrap;rounded=0;fontSize=13;" vertex="1" parent="1">
          <mxGeometry x="290" y="295" width="60" height="30" as="geometry" />
        </mxCell>
        <mxCell id="gMOgoBxVHWDVu3JlSCFE-26" value="&lt;pre&gt;&lt;font style=&quot;font-size: 11px&quot;&gt;第3章&lt;/font&gt;&lt;/pre&gt;" style="text;html=1;strokeColor=none;fillColor=none;align=center;verticalAlign=middle;whiteSpace=wrap;rounded=0;fontSize=13;" vertex="1" parent="1">
          <mxGeometry x="450" y="295" width="60" height="30" as="geometry" />
        </mxCell>
        <mxCell id="gMOgoBxVHWDVu3JlSCFE-27" value="&lt;pre&gt;&lt;font style=&quot;font-size: 11px&quot;&gt;第4章&lt;/font&gt;&lt;/pre&gt;" style="text;html=1;strokeColor=none;fillColor=none;align=center;verticalAlign=middle;whiteSpace=wrap;rounded=0;fontSize=13;" vertex="1" parent="1">
          <mxGeometry x="610" y="295" width="60" height="30" as="geometry" />
        </mxCell>
        <mxCell id="gMOgoBxVHWDVu3JlSCFE-28" value="" style="rounded=0;whiteSpace=wrap;html=1;" vertex="1" parent="1">
          <mxGeometry x="390" y="360" width="120" height="50" as="geometry" />
        </mxCell>
        <mxCell id="gMOgoBxVHWDVu3JlSCFE-29" value="" style="rounded=0;whiteSpace=wrap;html=1;fillColor=#B3B3B3;fontColor=#333333;strokeColor=#CCCCCC;" vertex="1" parent="1">
          <mxGeometry x="440" y="400" width="80" height="20" as="geometry" />
        </mxCell>
        <mxCell id="gMOgoBxVHWDVu3JlSCFE-30" value="&lt;h6&gt;&lt;font style=&quot;font-size: 11px&quot;&gt;基于信道容量的功率分配算法&lt;/font&gt;&lt;/h6&gt;" style="text;html=1;strokeColor=none;fillColor=none;align=center;verticalAlign=middle;whiteSpace=wrap;rounded=0;" vertex="1" parent="1">
          <mxGeometry x="402.5" y="370" width="95" height="30" as="geometry" />
        </mxCell>
        <mxCell id="gMOgoBxVHWDVu3JlSCFE-31" value="&lt;pre&gt;&lt;font style=&quot;font-size: 11px&quot;&gt;第3章第2节&lt;/font&gt;&lt;/pre&gt;" style="text;html=1;strokeColor=none;fillColor=none;align=center;verticalAlign=middle;whiteSpace=wrap;rounded=0;fontSize=13;" vertex="1" parent="1">
          <mxGeometry x="450" y="395" width="60" height="30" as="geometry" />
        </mxCell>
        <mxCell id="gMOgoBxVHWDVu3JlSCFE-32" value="" style="rounded=0;whiteSpace=wrap;html=1;" vertex="1" parent="1">
          <mxGeometry x="550" y="360" width="120" height="50" as="geometry" />
        </mxCell>
        <mxCell id="gMOgoBxVHWDVu3JlSCFE-33" value="" style="rounded=0;whiteSpace=wrap;html=1;fillColor=#B3B3B3;fontColor=#333333;strokeColor=#CCCCCC;" vertex="1" parent="1">
          <mxGeometry x="600" y="400" width="80" height="20" as="geometry" />
        </mxCell>
        <mxCell id="gMOgoBxVHWDVu3JlSCFE-34" value="&lt;h5&gt;&lt;font style=&quot;font-size: 12px&quot;&gt;基于误码率的功率分配算法&lt;/font&gt;&lt;/h5&gt;" style="text;html=1;strokeColor=none;fillColor=none;align=center;verticalAlign=middle;whiteSpace=wrap;rounded=0;" vertex="1" parent="1">
          <mxGeometry x="570" y="370" width="80" height="30" as="geometry" />
        </mxCell>
        <mxCell id="gMOgoBxVHWDVu3JlSCFE-35" value="&lt;pre&gt;&lt;font style=&quot;font-size: 11px&quot;&gt;第3章第3节&lt;/font&gt;&lt;/pre&gt;" style="text;html=1;strokeColor=none;fillColor=none;align=center;verticalAlign=middle;whiteSpace=wrap;rounded=0;fontSize=13;" vertex="1" parent="1">
          <mxGeometry x="610" y="395" width="60" height="30" as="geometry" />
        </mxCell>
        <mxCell id="gMOgoBxVHWDVu3JlSCFE-37" value="" style="endArrow=none;html=1;rounded=0;fontSize=12;" edge="1" parent="1">
          <mxGeometry width="50" height="50" relative="1" as="geometry">
            <mxPoint x="290" y="340" as="sourcePoint" />
            <mxPoint x="610" y="340" as="targetPoint" />
          </mxGeometry>
        </mxCell>
        <mxCell id="gMOgoBxVHWDVu3JlSCFE-40" value="" style="endArrow=none;html=1;rounded=0;fontSize=11;" edge="1" parent="1">
          <mxGeometry width="50" height="50" relative="1" as="geometry">
            <mxPoint x="450" y="340" as="sourcePoint" />
            <mxPoint x="450" y="320" as="targetPoint" />
          </mxGeometry>
        </mxCell>
        <mxCell id="gMOgoBxVHWDVu3JlSCFE-41" value="" style="rounded=0;whiteSpace=wrap;html=1;" vertex="1" parent="1">
          <mxGeometry x="230" y="360" width="120" height="50" as="geometry" />
        </mxCell>
        <mxCell id="gMOgoBxVHWDVu3JlSCFE-42" value="" style="rounded=0;whiteSpace=wrap;html=1;fillColor=#B3B3B3;fontColor=#333333;strokeColor=#CCCCCC;" vertex="1" parent="1">
          <mxGeometry x="280" y="400" width="80" height="20" as="geometry" />
        </mxCell>
        <mxCell id="gMOgoBxVHWDVu3JlSCFE-43" value="&lt;h6&gt;&lt;font style=&quot;font-size: 11px&quot;&gt;功率分配技术及其算法分类&lt;/font&gt;&lt;/h6&gt;" style="text;html=1;strokeColor=none;fillColor=none;align=center;verticalAlign=middle;whiteSpace=wrap;rounded=0;" vertex="1" parent="1">
          <mxGeometry x="251.25" y="370" width="77.5" height="30" as="geometry" />
        </mxCell>
        <mxCell id="gMOgoBxVHWDVu3JlSCFE-44" value="&lt;pre&gt;&lt;font style=&quot;font-size: 11px&quot;&gt;第3章第1节&lt;/font&gt;&lt;/pre&gt;" style="text;html=1;strokeColor=none;fillColor=none;align=center;verticalAlign=middle;whiteSpace=wrap;rounded=0;fontSize=13;" vertex="1" parent="1">
          <mxGeometry x="290" y="395" width="60" height="30" as="geometry" />
        </mxCell>
        <mxCell id="gMOgoBxVHWDVu3JlSCFE-47" value="" style="endArrow=none;html=1;rounded=0;fontSize=11;" edge="1" parent="1">
          <mxGeometry width="50" height="50" relative="1" as="geometry">
            <mxPoint x="290" y="360" as="sourcePoint" />
            <mxPoint x="290" y="340" as="targetPoint" />
          </mxGeometry>
        </mxCell>
        <mxCell id="gMOgoBxVHWDVu3JlSCFE-48" value="" style="endArrow=none;html=1;rounded=0;fontSize=11;" edge="1" parent="1">
          <mxGeometry width="50" height="50" relative="1" as="geometry">
            <mxPoint x="450" y="360" as="sourcePoint" />
            <mxPoint x="450" y="340" as="targetPoint" />
          </mxGeometry>
        </mxCell>
        <mxCell id="gMOgoBxVHWDVu3JlSCFE-49" value="" style="endArrow=none;html=1;rounded=0;fontSize=11;" edge="1" parent="1">
          <mxGeometry width="50" height="50" relative="1" as="geometry">
            <mxPoint x="609.67" y="360" as="sourcePoint" />
            <mxPoint x="609.67" y="340" as="targetPoint" />
          </mxGeometry>
        </mxCell>
      </root>
    </mxGraphModel>
  </diagram>
</mxfile>
